<?xml version="1.0" standalone="no"?>
<!DOCTYPE svg PUBLIC "-//W3C//DTD SVG 20010904//EN"
 "http://www.w3.org/TR/2001/REC-SVG-20010904/DTD/svg10.dtd">
<svg version="1.0" xmlns="http://www.w3.org/2000/svg"
 width="152.000000pt" height="152.000000pt" viewBox="0 0 152.000000 152.000000"
 preserveAspectRatio="xMidYMid meet">
<metadata>
Created by potrace 1.14, written by Peter Selinger 2001-2017
</metadata>
<g transform="translate(0.000000,152.000000) scale(0.100000,-0.100000)"
fill="#000000" stroke="none">
<path d="M665 1272 c-133 -45 -249 -136 -327 -256 -55 -85 -78 -172 -78 -292
0 -163 37 -265 135 -373 241 -264 669 -214 816 97 113 239 12 500 -224 581
-123 43 -281 16 -375 -64 -73 -61 -122 -171 -122 -272 0 -110 85 -232 185
-267 65 -22 169 -21 220 3 129 58 185 219 110 317 -29 38 -113 84 -153 84 -86
0 -159 -84 -133 -154 18 -46 69 -53 110 -15 27 25 50 24 60 -3 20 -54 -22
-107 -92 -115 -150 -17 -215 175 -105 307 43 51 157 75 246 50 55 -14 123 -76
153 -138 47 -100 22 -243 -59 -333 -76 -84 -151 -117 -261 -112 -82 3 -150 26
-210 71 -112 85 -164 192 -163 338 2 210 164 397 378 435 66 11 94 35 94 79 0
65 -74 77 -205 32z"/>
</g>
</svg>
